<svg height="512" viewBox="0 0 58 58" width="512" xmlns="http://www.w3.org/2000/svg"><g id="Page-1" fill="none" fill-rule="evenodd"><g id="026---Idea" fill-rule="nonzero"><path id="Shape" d="m8.6 30.33h-2.78c-.47835409.0008536-.88911334.3403587-.98.81l-4.38 22.48c-.11364817.5872358.04149794 1.1945136.42288718 1.6552783.38138925.4607646.94898395.7266458 1.54711282.7247217h21.57c0 1.1 2.24 2 5 2s5-.9 5-2h21.57c.5981289.0019241 1.1657236-.2639571 1.5471128-.7247217.3813893-.4607647.5365354-1.0680425.4228872-1.6552783l-4.38-22.48c-.0908867-.4696413-.5016459-.8091464-.98-.81z" fill="#e64c3c"/><path id="Shape" d="m29 33.24v18.76c-1.4630104-.6354613-2.9877765-1.1180247-4.55-1.44-5.9383097-1.2910315-12.1133417-.9769298-17.89.91-.33203837.1012932-.69283455.0246037-.95496715-.2029843-.26213261-.227588-.38871138-.5740457-.33503285-.9170157l3.33-20.02.28-1.69c.07166701-.4288869.4102856-.7634743.84-.83.68-.1 1.38-.2 2.08-.28 1.2219719 2.3753787 3.6687385 3.8689097 6.34 3.87.18 0 .35-.01.52-.02.6658883-.0519557 1.3217658-.1932216 1.95-.42.0020713.0212492.0089076.0417578.02.06.748245 2.0957046 2.7347278 3.4934516 4.96 3.49 1.2530592.0041566 2.4649326-.4471863 3.41-1.27z" fill="#f5efca"/><path id="Shape" d="m51.44 51.47c-5.7766583-1.8869298-11.9516903-2.2010315-17.89-.91-1.5622235.3219753-3.0869896.8045387-4.55 1.44v-18.76c.2102989-.1719288.4044401-.3627228.58-.57.9991208.3974039 2.064746.6010265 3.14.6h.06c.0519407.7150559.3244702 1.3963798.78 1.95.970632.9595172 2.1839209 1.6370232 3.51 1.96.9622305.3072051 1.820609.8748425 2.48 1.64.5878002.7282034 1.5838349.9843266 2.45.63.7625169-.3293774 1.2572891-1.0793893 1.26-1.91.0010516-.2173042-.0327094-.4333743-.1-.64-.1-.31-.21-.62-.34-.92-.2507632-.6195944-.5801287-1.204386-.98-1.74 1.9832906-1.0726124 3.3760773-2.9835598 3.79-5.2.03-.04.07-.08.1-.12.3422287-.402568.6220194-.8542783.83-1.34.58.07 1.15.14 1.72.23.4297144.0665257.768333.4011131.84.83l.28 1.69 3.33 20.02c.0536785.34297-.0729002.6894277-.3350328.9170157-.2621327.227588-.6229288.3042775-.9549672.2029843z" fill="#f9eab0"/><path id="Shape" d="m34 56c0 1.1-2.24 2-5 2s-5-.9-5-2l.45-5.44c1.5622235.3219753 3.0869896.8045387 4.55 1.44 1.4630104-.6354613 2.9877765-1.1180247 4.55-1.44z" fill="#c03a2b"/><path id="Shape" d="m47 25.49c-.0009365.7195585-.1507432 1.4311405-.44 2.09-.2079806.4857217-.4877713.937432-.83 1.34-.03.04-.07.08-.1.12-.4139227 2.2164402-1.8067094 4.1273876-3.79 5.2.3998713.535614.7292368 1.1204056.98 1.74.13.3.24.61.34.92.0672906.2066257.1010516.4226958.1.64-.0027109.8306107-.4974831 1.5806226-1.26 1.91-.8661651.3543266-1.8621998.0982034-2.45-.63-.659391-.7651575-1.5177695-1.3327949-2.48-1.64-1.3260791-.3229768-2.539368-1.0004828-3.51-1.96-.4555298-.5536202-.7280593-1.2349441-.78-1.95h-.06c-1.075254.0010265-2.1408792-.2025961-3.14-.6-.1755599.2072772-.3697011.3980712-.58.57-.9450674.8228137-2.1569408 1.2741566-3.41 1.27-2.2252722.0034516-4.211755-1.3942954-4.96-3.49-.0110924-.0182422-.0179287-.0387508-.02-.06-.6282342.2267784-1.2841117.3680443-1.95.42-.17.01-.34.02-.52.02-2.70273-.0018834-5.1730736-1.5286339-6.383464-3.9451826-1.2103905-2.4165488-.9536358-5.3092364.663464-7.4748174-.1202827-.3265626-.1812409-.671992-.18-1.02-.0060198-1.4778382 1.0320057-2.7544422 2.48-3.05.0053939-.0054305.0124192-.0089432.02-.01-.01-.12-.02-.24-.02-.37-.0013365-.5546245.1145272-1.1032731.34-1.61.6380492-1.475659 2.0923074-2.4307529 3.7-2.43.6063174-.0028859 1.2051448.1339889 1.75.4 1.0645952-1.7923932 2.9952852-2.89075816 5.08-2.89 1.430349-.00519326 2.8121729.51833279 3.88 1.47.6130013-.98880464 1.7280309-1.55114416 2.8875588-1.45627371 1.1595278.09487046 2.1683209.83097731 2.6124412 1.90627371.2855781-.0318944.5726499-.0485846.86-.05 3.8745981.006417 7.09894 2.9787215 7.42 6.84h.03c.8239067-.0000043 1.6139231.3279743 2.1955741.9115017.5816511.5835273.9070837 1.3745959.9044259 2.1984983-.0019397.5387729-.1395014 1.0683853-.4 1.54.6636194.9086143 1.0208581 2.0048467 1.02 3.13z" fill="#fb7b76"/><path id="Shape" d="m29 3c-.5522847 0-1-.44771525-1-1v-1c0-.55228475.4477153-1 1-1s1 .44771525 1 1v1c0 .55228475-.4477153 1-1 1z" fill="#f0c419"/><path id="Shape" d="m45.117 9.883c-.4043959-.00008635-.7689341-.2437275-.923678-.61734544s-.0692299-.80366031.216678-1.08965456l1-1c.2510745-.25995658.6228779-.3642126.9725073-.27269716.3496295.09151544.6226744.3645604.7141899.71418984.0915154.34962943-.0127406.72143285-.2726972.97250732l-1 1c-.1874927.18754937-.4418052.29294336-.707.293z" fill="#f0c419"/><path id="Shape" d="m12.883 9.883c-.2651948-.00005664-.5195073-.10545063-.707-.293l-1-1c-.2599566-.25107447-.3642126-.62287789-.2726972-.97250732.0915155-.34962944.3645604-.6226744.7141899-.71418984.3496294-.09151544.7214328.01274058.9725073.27269716l1 1c.2859079.28599425.3714219.71603662.216678 1.08965456s-.5192821.61725909-.923678.61734544z" fill="#f0c419"/><path id="Shape" d="m20.581 5.675c-.4044291.00010177-.7691037-.24340926-.924-.617l-1.148-2.772c-.1459579-.33167747-.1010622-.71636394.1173512-1.00551658s.5761647-.43752159.9351117-.38781568c.3589471.04970591.6629179.28970815.7945371.62733226l1.149 2.772c.1019555.24516905.10222.52082095.0007353.76618523-.1014848.24536427-.2963859.44029399-.5417353.54181477-.1216058.04956448-.2516813.07503618-.383.075z" fill="#f0c419"/><path id="Shape" d="m37.419 5.675c-.1313847-.00028124-.2614627-.02609305-.383-.076-.2451011-.10152817-.4398132-.29629087-.5412776-.54141839s-.1013645-.52052773.0002776-.76558161l1.149-2.772c.1316192-.33762411.43559-.57762635.7945371-.62733226.358947-.04970591.7166983.09866304.9351117.38781568s.2633091.67383911.1173512 1.00551658l-1.148 2.772c-.1548963.37359074-.5195709.61710177-.924.617z" fill="#f0c419"/><path id="Shape" d="m49.325 17.582c-.4781994.0014557-.8905059-.3358504-.9838203-.8048591-.0933145-.4690088.1584816-.9384454.6008203-1.1201409l2.772-1.148c.3301134-.1366541.7080549-.0868143.9914575.1307452.2834026.2175596.4292108.5697864.3825.9240001-.0467108.3542136-.2788441.6566006-.6089575.7932547l-2.771 1.148c-.1213628.0505969-.2515126.0767628-.383.077z" fill="#f0c419"/><path id="Shape" d="m8.675 17.582c-.13148737-.0002372-.26163717-.0264031-.383-.077l-2.771-1.148c-.33011341-.1366541-.56224669-.4390411-.60895749-.7932547-.04671079-.3542137.09909739-.7064405.38250001-.924.28340262-.2175596.66134407-.2673994.99145748-.1307453l2.772 1.148c.44233872.1816955.69413479.6511321.60082032 1.1201409-.09331447.4690087-.50562091.8063148-.98382032.8048591z" fill="#f0c419"/><g fill="#ff5364"><path id="Shape" d="m45.73 28.92c-.03.04-.07.08-.1.12-.1762002.9630576-.5434156 1.8810961-1.08 2.7-.523665.1486116-1.0656625.2226734-1.61.22-.9910253-.00282-1.9674299-.2392127-2.85-.69-.4177848-.2235681-.8100803-.4918043-1.17-.8-.3988598.1544632-.8222968.2357631-1.25.24-1.3208952.0068121-2.530828-.7377619-3.12-1.92-.1607695-.3197527-.1387406-.7009859.0577886-1.0000927.1965292-.2991069.5377012-.4706459.895-.45.3572987.0206458.6764419.23034.8372114.5500927.1975001.379155.5473995.656023.9618059.7610568.4144064.1050339.8539403.0282527 1.2081941-.2110568.3999628-.2729843.6394464-.725758.64-1.21.0014729-.2318205-.0498218-.4609372-.15-.67-.2013504-.4835272.0045141-1.0404963.4719378-1.2768341s1.0380149-.0719586 1.3080622.3768341c.2431591.487652.3698157 1.0250864.37 1.57-.008092.6987336-.2277449 1.3786114-.63 1.95.16.11.32.22.48.31.6000346.3088596 1.2651401.4699934 1.94.47 1.0257992.005683 2.0182121-.3642488 2.79-1.04z"/><path id="Shape" d="m33.5 24.994c1.2954474-.892562 2.1863108-2.2603015 2.479-3.806.0744538-.3538613-.0479307-.7203513-.3200693-.9584726-.2721387-.2381213-.6516311-.3107736-.9924777-.1900059-.3408465.1207677-.5899418.4161394-.651453.7724785-.1960875 1.031393-.7911685 1.9437787-1.656 2.539-1.6637494 1.1205406-3.8950927.8662081-5.264-.6-.3725161-.4086907-1.0058093-.4380161-1.4145-.0655s-.4380161 1.0058093-.0655 1.4145c.8483053.9366084 1.9694213 1.5830428 3.205 1.848-.5602336.7874224-1.4676196 1.2541633-2.434 1.252-.5522847 0-1 .4477153-1 1s.4477153 1 1 1c2.070157.0082594 3.9276303-1.2703233 4.659-3.207.882342-.1466426 1.7209651-.487899 2.455-.999z"/><path id="Shape" d="m42.82 35.98c-.7350575.3751077-1.5248122.6316092-2.34.76-.0529056.0083078-.1064716.0116557-.16.01-.5266594.0048623-.9668159-.3996017-1.0064033-.9247937-.0395873-.525192.3349658-.9910664.8564033-1.0652063.5797904-.0877521 1.1428827-.2630862 1.67-.52.3998713.535614.7292368 1.1204056.98 1.74z"/><path id="Shape" d="m20.54 29c-.0504798.2805853-.077241.5649233-.08.85-.0020177.3751852.0484718.7488075.15 1.11-.6282342.2267784-1.2841117.3680443-1.95.42-.1279921-.4898936-.1951644-.9936855-.2-1.5-1.7614541-.1921184-3.0966867-1.678103-3.1-3.45-.0033484-.5569296.4431133-1.0123206 1-1.02.2639714-.0015955.5177363.1018756.7053313.2875946.187595.1857191.2936112.4384313.2946687.7024054v.03c.0149527.7902154.6404976 1.4332581 1.43 1.47.1382578-.4510503.3295979-.8840833.57-1.29.1342833-.2293081.3554389-.3947069.6133484-.4587136.2579096-.0640068.5307362-.0212021.7566516.1187136.4702203.2906606.6213734.9041641.34 1.38-.253925.4157071-.433287.8725726-.53 1.35z"/><path id="Shape" d="m35.41 34.85c-.6008669.1922164-1.2214243.3163279-1.85.37-.4555298-.5536202-.7280593-1.2349441-.78-1.95.0967758.0018385.1935807-.0014996.29-.01.5938627-.0376795 1.1812319-.1450841 1.75-.32.3448934-.1183.7268382-.039505.9967552.2056299.269917.245135.3850181.6177504.3003774.9724083-.0846406.354658-.3556055.6351371-.7071326.7319618z"/><path id="Shape" d="m26.8 17c0-.5522847-.4477153-1-1-1-2.5393675.0027557-4.5972443 2.0606325-4.6 4.6 0 .5522847.4477153 1 1 1s1-.4477153 1-1c0-.6895629.2739278-1.350883.7615224-1.8384776s1.1489147-.7615224 1.8384776-.7615224c.5522847 0 1-.4477153 1-1z"/><path id="Shape" d="m13.748 22.623c-.1816328.0002013-.3598133-.04962-.515-.144-.8246056-.4975806-1.4485047-1.2686958-1.763-2.179-.152124-.4327762-.2295607-.8882663-.229-1.347-.0000097-2.2663168 1.8336928-4.1053862 4.1-4.112 1.298595-.0049677 2.5211724.6117109 3.289 1.659.2131089.2868843.2569788.6656685.1150842.9936684s-.4479965.5553844-.803.5965c-.3550036.0411156-.7049753-.1102841-.9180842-.3971684-.3919415-.534799-1.0159583-.8499666-1.679-.848-.9465127.0053146-1.7740175.6394302-2.0253091 1.5519909s.1349447 1.8809037.9453091 2.3700091c.3853226.231694.5686375.6920632.4480476 1.1252071-.1205899.433144-.5154311.7325509-.9650476.7317929z"/><path id="Shape" d="m35.207 13.111c-.5522847 0-1-.4477153-1-1 0-1.161731-.941769-2.1035-2.1035-2.1035s-2.1035.941769-2.1035 2.1035c0 .5522847-.4477153 1-1 1s-1-.4477153-1-1c0-2.26630047 1.8371995-4.1035 4.1035-4.1035s4.1035 1.83719953 4.1035 4.1035c0 .2652165-.1053568.5195704-.2928932.7071068s-.4418903.2928932-.7071068.2928932z"/><path id="Shape" d="m44.587 24.641c-.4643046-.0045462-.8643986-.3280949-.9659835-.7811732-.101585-.4530782.1220671-.9164774.5399835-1.1188268.398517-.1872553.729317-.493254.947-.876.5087331-.8669714.3317441-1.9728732-.4221505-2.6377731-.7538945-.6648999-1.8732446-.7023088-2.6698495-.0892269-.4418278.3313708-1.0686292.2418278-1.4-.2s-.2418278-1.0686292.2-1.4c.6997963-.5298116 1.5522819-.8188849 2.43-.824 1.9320067-.0131107 3.6124452 1.3208952 4.0379561 3.2055072.425511 1.8846119-.5187392 3.8112247-2.2689561 4.6294928-.1339813.0623183-.2802453.0937582-.428.092z"/></g></g></g></svg>